<svg xmlns="http://www.w3.org/2000/svg" xmlns:xlink="http://www.w3.org/1999/xlink" width="800" zoomAndPan="magnify" viewBox="0 0 600 217.499994" height="290" preserveAspectRatio="xMidYMid meet" version="1.0"><defs><clipPath id="96c762b6aa"><path d="M 13.53125 1 L 586.710938 1 L 586.710938 217 L 13.53125 217 Z M 13.53125 1 " clip-rule="nonzero"/></clipPath></defs><g clip-path="url(#96c762b6aa)"><path fill="#000000" d="M 583.898438 142.335938 C 585.136719 139.25 586.6875 135.40625 586.691406 131.046875 C 586.699219 125.535156 584.007812 120.636719 579.777344 118.179688 C 579.378906 117.878906 578.964844 117.609375 578.53125 117.359375 C 578.132812 117.058594 577.714844 116.785156 577.285156 116.535156 C 576.886719 116.234375 576.46875 115.960938 576.039062 115.710938 C 575.636719 115.410156 575.222656 115.136719 574.789062 114.886719 C 574.390625 114.585938 573.976562 114.3125 573.542969 114.0625 C 573.144531 113.761719 572.730469 113.488281 572.296875 113.238281 C 571.898438 112.9375 571.480469 112.664062 571.050781 112.414062 C 570.65625 112.117188 570.246094 111.851562 569.820312 111.601562 C 571.632812 107.933594 574.089844 101.390625 569.914062 95.769531 C 568.90625 94.414062 567.652344 93.359375 566.261719 92.554688 C 565.863281 92.253906 565.449219 91.980469 565.015625 91.730469 C 564.617188 91.429688 564.199219 91.15625 563.769531 90.910156 C 563.75 90.894531 563.734375 90.878906 563.714844 90.867188 C 568.21875 81.734375 569.339844 71.351562 566.179688 62.0625 C 563.84375 55.1875 559.308594 49.445312 553.636719 45.863281 C 553.230469 45.574219 552.8125 45.304688 552.390625 45.039062 C 551.984375 44.75 551.566406 44.480469 551.144531 44.214844 C 550.738281 43.925781 550.320312 43.65625 549.898438 43.390625 C 549.488281 43.101562 549.070312 42.832031 548.652344 42.566406 C 548.242188 42.277344 547.824219 42.011719 547.402344 41.742188 C 546.996094 41.453125 546.578125 41.1875 546.160156 40.921875 C 545.75 40.628906 545.332031 40.363281 544.910156 40.097656 C 544.503906 39.804688 544.085938 39.539062 543.664062 39.273438 C 543.257812 38.984375 542.839844 38.714844 542.417969 38.449219 C 542.007812 38.160156 541.59375 37.890625 541.171875 37.625 C 540.765625 37.335938 540.347656 37.066406 539.925781 36.800781 C 539.515625 36.511719 539.097656 36.242188 538.679688 35.976562 C 538.269531 35.6875 537.851562 35.417969 537.429688 35.152344 C 537.023438 34.863281 536.605469 34.59375 536.1875 34.328125 C 535.777344 34.039062 535.359375 33.773438 534.9375 33.503906 C 534.53125 33.214844 534.113281 32.949219 533.691406 32.683594 C 533.285156 32.390625 532.863281 32.125 532.445312 31.859375 C 532.035156 31.566406 531.621094 31.300781 531.199219 31.035156 C 530.792969 30.746094 530.375 30.476562 529.953125 30.210938 C 529.542969 29.921875 529.125 29.652344 528.707031 29.386719 C 526.789062 28.027344 524.734375 26.898438 522.5625 26.101562 C 508.792969 21.019531 491.136719 24.65625 480.609375 34.730469 C 473.308594 41.714844 466.703125 50.066406 460.507812 60.144531 C 459.171875 59.445312 457.847656 58.742188 456.53125 58.035156 L 398.347656 26.757812 C 384.816406 19.488281 370.828125 11.96875 355.710938 7.042969 C 338.171875 1.328125 321.835938 0.0859375 307.15625 3.371094 C 289.34375 7.34375 274.386719 18.445312 267.152344 33.050781 C 260.027344 47.425781 261.230469 64.972656 269.5625 77.355469 C 269.183594 77.105469 268.808594 76.847656 268.425781 76.613281 C 268.011719 76.332031 267.601562 76.050781 267.179688 75.789062 C 266.765625 75.507812 266.351562 75.226562 265.933594 74.964844 C 265.519531 74.683594 265.105469 74.402344 264.683594 74.140625 C 264.269531 73.859375 263.859375 73.578125 263.441406 73.316406 C 263.027344 73.039062 262.613281 72.753906 262.191406 72.492188 C 261.777344 72.214844 261.367188 71.929688 260.945312 71.667969 C 260.53125 71.390625 260.121094 71.105469 259.699219 70.84375 C 259.285156 70.566406 258.871094 70.28125 258.453125 70.019531 C 258.039062 69.742188 257.628906 69.457031 257.207031 69.195312 C 256.792969 68.917969 256.378906 68.632812 255.960938 68.371094 C 255.546875 68.09375 255.132812 67.808594 254.710938 67.546875 C 254.296875 67.269531 253.886719 66.984375 253.46875 66.722656 C 253.054688 66.445312 252.640625 66.160156 252.21875 65.898438 C 251.804688 65.621094 251.394531 65.335938 250.972656 65.074219 C 250.558594 64.796875 250.148438 64.515625 249.726562 64.253906 C 249.3125 63.972656 248.898438 63.691406 248.480469 63.429688 C 248.066406 63.148438 247.65625 62.867188 247.234375 62.605469 C 246.820312 62.324219 246.40625 62.042969 245.988281 61.78125 C 239.203125 57.214844 231.628906 54.945312 224.445312 55.480469 C 219.054688 55.894531 214.074219 57.988281 210.109375 61.152344 C 205.890625 57.375 201.351562 53.933594 196.492188 50.941406 C 196.492188 50.9375 196.488281 50.9375 196.484375 50.9375 C 196.066406 50.671875 195.667969 50.378906 195.246094 50.117188 C 195.242188 50.113281 195.242188 50.113281 195.238281 50.113281 C 194.820312 49.847656 194.421875 49.550781 194 49.292969 C 193.996094 49.289062 193.992188 49.289062 193.992188 49.289062 C 193.570312 49.023438 193.175781 48.730469 192.75 48.46875 C 192.75 48.46875 192.746094 48.464844 192.742188 48.464844 C 192.324219 48.199219 191.929688 47.90625 191.503906 47.644531 C 191.503906 47.644531 191.5 47.644531 191.496094 47.640625 C 191.078125 47.375 190.679688 47.082031 190.257812 46.820312 C 190.253906 46.820312 190.25 46.820312 190.25 46.816406 C 189.832031 46.550781 189.433594 46.257812 189.011719 45.996094 C 189.007812 45.996094 189.007812 45.996094 189.003906 45.992188 C 188.585938 45.726562 188.1875 45.433594 187.761719 45.175781 C 187.761719 45.171875 187.757812 45.167969 187.753906 45.167969 C 187.335938 44.902344 186.9375 44.613281 186.515625 44.351562 C 186.515625 44.347656 186.507812 44.347656 186.507812 44.347656 C 186.089844 44.078125 185.691406 43.789062 185.269531 43.527344 C 185.265625 43.523438 185.261719 43.523438 185.261719 43.523438 C 184.839844 43.257812 184.445312 42.964844 184.023438 42.703125 C 184.019531 42.699219 184.015625 42.699219 184.015625 42.699219 C 183.597656 42.433594 183.199219 42.136719 182.773438 41.878906 C 182.773438 41.875 182.769531 41.875 182.765625 41.875 C 182.347656 41.609375 181.949219 41.316406 181.527344 41.054688 C 181.527344 41.054688 181.519531 41.050781 181.519531 41.050781 C 181.101562 40.785156 180.703125 40.492188 180.28125 40.230469 C 180.277344 40.230469 180.273438 40.226562 180.273438 40.226562 C 179.851562 39.960938 179.457031 39.667969 179.035156 39.40625 C 179.03125 39.40625 179.027344 39.40625 179.027344 39.402344 C 178.609375 39.136719 178.210938 38.84375 177.785156 38.582031 C 177.785156 38.582031 177.78125 38.582031 177.777344 38.578125 C 177.359375 38.3125 176.960938 38.019531 176.539062 37.757812 C 176.535156 37.757812 176.53125 37.757812 176.53125 37.753906 C 176.113281 37.488281 175.714844 37.199219 175.292969 36.9375 C 175.289062 36.933594 175.285156 36.933594 175.28125 36.929688 C 174.863281 36.664062 174.46875 36.375 174.042969 36.113281 C 174.042969 36.109375 174.039062 36.109375 174.039062 36.109375 C 173.621094 35.84375 173.21875 35.546875 172.796875 35.289062 C 172.796875 35.285156 172.789062 35.285156 172.789062 35.285156 C 172.371094 35.019531 171.972656 34.726562 171.550781 34.464844 C 171.546875 34.460938 171.542969 34.460938 171.542969 34.460938 C 171.121094 34.195312 170.726562 33.902344 170.304688 33.640625 C 145.464844 18.351562 114.222656 15.058594 86.742188 24.839844 C 75.378906 28.878906 66.09375 34.632812 59.144531 41.933594 C 50.800781 50.71875 45.960938 62.011719 45.867188 72.925781 C 45.765625 85.464844 52.160156 97.492188 62.160156 103.558594 C 62.261719 103.617188 62.371094 103.65625 62.472656 103.714844 C 62.792969 103.925781 63.082031 104.183594 63.410156 104.382812 C 63.507812 104.441406 63.617188 104.480469 63.71875 104.539062 C 64.039062 104.75 64.328125 105.007812 64.65625 105.203125 C 64.757812 105.265625 64.867188 105.304688 64.964844 105.363281 C 65.285156 105.574219 65.574219 105.832031 65.902344 106.027344 C 66 106.089844 66.109375 106.125 66.210938 106.1875 C 66.53125 106.398438 66.820312 106.652344 67.148438 106.851562 C 67.25 106.914062 67.359375 106.949219 67.457031 107.007812 C 67.777344 107.222656 68.066406 107.476562 68.394531 107.675781 C 68.496094 107.738281 68.605469 107.773438 68.703125 107.832031 C 69.027344 108.042969 69.316406 108.300781 69.640625 108.5 C 69.742188 108.5625 69.851562 108.597656 69.953125 108.65625 C 70.273438 108.867188 70.5625 109.125 70.890625 109.324219 C 70.988281 109.386719 71.097656 109.421875 71.199219 109.480469 C 71.519531 109.691406 71.808594 109.949219 72.136719 110.148438 C 72.238281 110.207031 72.347656 110.246094 72.445312 110.304688 C 72.765625 110.515625 73.058594 110.773438 73.382812 110.972656 C 73.484375 111.03125 73.59375 111.070312 73.695312 111.128906 C 74.015625 111.339844 74.304688 111.597656 74.632812 111.796875 C 74.730469 111.855469 74.839844 111.894531 74.9375 111.953125 C 75.257812 112.164062 75.550781 112.421875 75.875 112.621094 C 75.976562 112.679688 76.085938 112.71875 76.1875 112.777344 C 76.507812 112.988281 76.796875 113.246094 77.125 113.441406 C 77.222656 113.503906 77.332031 113.542969 77.433594 113.601562 C 77.753906 113.8125 78.042969 114.070312 78.371094 114.265625 C 78.46875 114.328125 78.578125 114.363281 78.679688 114.421875 C 79 114.636719 79.289062 114.890625 79.617188 115.089844 C 79.71875 115.152344 79.828125 115.1875 79.925781 115.246094 C 80.246094 115.457031 80.535156 115.714844 80.863281 115.914062 C 80.960938 115.976562 81.070312 116.011719 81.171875 116.070312 C 81.492188 116.28125 81.78125 116.539062 82.109375 116.738281 C 82.210938 116.800781 82.320312 116.835938 82.417969 116.894531 C 82.738281 117.105469 83.03125 117.363281 83.355469 117.5625 C 83.457031 117.625 83.566406 117.660156 83.667969 117.71875 C 83.988281 117.929688 84.277344 118.1875 84.605469 118.386719 C 84.703125 118.445312 84.8125 118.484375 84.914062 118.542969 C 85.234375 118.753906 85.523438 119.011719 85.851562 119.210938 C 85.949219 119.269531 86.058594 119.308594 86.160156 119.367188 C 86.480469 119.578125 86.769531 119.835938 87.097656 120.035156 C 87.199219 120.09375 87.308594 120.132812 87.40625 120.191406 C 87.726562 120.402344 88.019531 120.660156 88.34375 120.855469 C 89.421875 121.507812 90.550781 122.046875 91.6875 122.554688 L 90.746094 124.535156 C 83.925781 122.535156 77.929688 121.277344 72.183594 120.628906 C 58.105469 119.050781 45.261719 121.3125 34.996094 127.175781 C 22.410156 134.363281 14.339844 146.976562 13.933594 160.078125 C 13.523438 173.242188 21.117188 185.871094 32.765625 193.152344 C 33.175781 193.429688 33.589844 193.710938 34.011719 193.976562 C 34.421875 194.253906 34.832031 194.535156 35.257812 194.800781 C 35.671875 195.078125 36.082031 195.359375 36.507812 195.625 C 36.917969 195.902344 37.332031 196.179688 37.753906 196.445312 C 38.164062 196.726562 38.578125 197.007812 39 197.269531 C 39.414062 197.550781 39.824219 197.828125 40.246094 198.09375 C 40.660156 198.375 41.070312 198.65625 41.496094 198.917969 C 41.90625 199.199219 42.320312 199.476562 42.742188 199.742188 C 43.152344 200.019531 43.566406 200.300781 43.988281 200.566406 C 44.402344 200.84375 44.8125 201.125 45.234375 201.390625 C 45.648438 201.667969 46.058594 201.949219 46.484375 202.214844 C 46.894531 202.492188 47.308594 202.773438 47.730469 203.039062 C 48.140625 203.316406 48.554688 203.59375 48.976562 203.859375 C 49.390625 204.140625 49.800781 204.417969 50.222656 204.683594 C 50.636719 204.964844 51.046875 205.246094 51.472656 205.507812 C 51.882812 205.789062 52.296875 206.070312 52.71875 206.332031 C 53.132812 206.613281 53.542969 206.894531 53.964844 207.15625 C 54.378906 207.433594 54.789062 207.714844 55.214844 207.980469 C 55.625 208.257812 56.035156 208.539062 56.457031 208.804688 C 56.871094 209.082031 57.28125 209.363281 57.707031 209.628906 C 61.722656 212.339844 66.246094 214.425781 71.140625 215.625 C 74.707031 216.496094 78.386719 216.921875 82.109375 216.921875 C 94.554688 216.921875 107.492188 212.148438 118.308594 203.289062 C 121.628906 200.566406 124.796875 197.441406 127.765625 193.957031 C 138.242188 199.359375 148.25 202.910156 158.234375 204.78125 C 176.042969 208.117188 193.519531 205.703125 207.453125 197.996094 C 213.449219 194.675781 218.890625 190.289062 223.617188 185.101562 C 223.765625 185.199219 223.917969 185.292969 224.070312 185.386719 C 224.472656 185.683594 224.894531 185.945312 225.320312 186.210938 C 225.71875 186.507812 226.144531 186.769531 226.566406 187.035156 C 226.964844 187.332031 227.386719 187.59375 227.8125 187.859375 C 228.210938 188.15625 228.636719 188.417969 229.058594 188.683594 C 229.457031 188.980469 229.878906 189.242188 230.304688 189.503906 C 230.703125 189.804688 231.128906 190.066406 231.550781 190.328125 C 231.953125 190.628906 232.375 190.890625 232.800781 191.152344 C 233.199219 191.453125 233.621094 191.714844 234.042969 191.976562 C 234.445312 192.277344 234.867188 192.539062 235.292969 192.800781 C 238.453125 195.15625 242.421875 196.484375 246.472656 196.484375 C 248.308594 196.484375 250.160156 196.214844 251.957031 195.648438 C 256.605469 194.183594 260.269531 190.503906 262.675781 185.105469 C 263.050781 185.371094 263.441406 185.609375 263.828125 185.859375 C 264.234375 186.148438 264.65625 186.410156 265.074219 186.679688 C 265.480469 186.972656 265.902344 187.238281 266.320312 187.503906 C 266.730469 187.796875 267.148438 188.058594 267.570312 188.328125 C 267.976562 188.617188 268.394531 188.882812 268.816406 189.152344 C 269.222656 189.441406 269.640625 189.707031 270.0625 189.976562 C 270.46875 190.265625 270.890625 190.53125 271.308594 190.800781 C 271.714844 191.089844 272.136719 191.355469 272.554688 191.625 C 276.332031 194.3125 280.691406 196.171875 285.316406 196.875 C 286.722656 197.089844 288.140625 197.195312 289.5625 197.195312 C 298.128906 197.195312 306.652344 193.359375 312.277344 186.957031 C 312.433594 187.050781 312.605469 187.128906 312.769531 187.21875 C 313.183594 187.496094 313.578125 187.796875 314.015625 188.042969 C 314.433594 188.320312 314.828125 188.617188 315.261719 188.867188 C 315.679688 189.144531 316.074219 189.441406 316.511719 189.691406 C 316.925781 189.96875 317.320312 190.265625 317.757812 190.515625 C 318.175781 190.792969 318.570312 191.089844 319.003906 191.339844 C 319.421875 191.617188 319.816406 191.914062 320.25 192.164062 C 320.667969 192.4375 321.0625 192.738281 321.5 192.984375 C 325.34375 195.550781 330.042969 196.96875 334.933594 196.96875 C 337.644531 196.96875 340.402344 196.554688 343.074219 195.699219 C 349.75 193.5625 355.988281 188.84375 361.113281 182.050781 C 361.648438 181.34375 362.113281 180.628906 362.582031 179.914062 C 362.960938 180.199219 363.375 180.429688 363.773438 180.691406 C 364.171875 180.992188 364.605469 181.242188 365.019531 181.515625 C 365.417969 181.816406 365.851562 182.066406 366.265625 182.339844 C 366.667969 182.640625 367.097656 182.886719 367.511719 183.164062 C 367.910156 183.464844 368.34375 183.714844 368.757812 183.988281 C 369.160156 184.289062 369.589844 184.535156 370.007812 184.8125 C 370.40625 185.113281 370.835938 185.359375 371.253906 185.636719 C 371.652344 185.9375 372.085938 186.183594 372.5 186.460938 C 372.898438 186.761719 373.332031 187.007812 373.746094 187.28125 C 374.144531 187.582031 374.578125 187.832031 374.992188 188.105469 C 375.390625 188.40625 375.824219 188.65625 376.238281 188.929688 C 376.640625 189.230469 377.070312 189.480469 377.488281 189.753906 C 377.886719 190.054688 378.316406 190.300781 378.730469 190.578125 C 379.132812 190.878906 379.566406 191.128906 379.980469 191.402344 C 380.859375 192.066406 381.78125 192.671875 382.734375 193.207031 C 386.644531 195.40625 391.101562 196.472656 395.691406 196.472656 C 402.53125 196.472656 409.648438 194.085938 415.578125 189.472656 C 417.378906 188.070312 419.042969 186.410156 420.632812 184.625 C 420.652344 184.640625 420.675781 184.648438 420.695312 184.664062 C 421.085938 184.96875 421.53125 185.210938 421.945312 185.488281 C 422.332031 185.792969 422.773438 186.035156 423.191406 186.3125 C 423.582031 186.617188 424.023438 186.859375 424.4375 187.132812 C 424.828125 187.441406 425.269531 187.683594 425.683594 187.957031 C 426.074219 188.265625 426.519531 188.503906 426.933594 188.78125 C 427.324219 189.085938 427.765625 189.328125 428.179688 189.605469 C 428.570312 189.910156 429.011719 190.152344 429.425781 190.429688 C 429.816406 190.734375 430.257812 190.976562 430.671875 191.253906 C 432.882812 192.984375 435.496094 194.296875 438.429688 195.078125 C 440.550781 195.640625 442.792969 195.914062 445.046875 195.914062 C 450.148438 195.914062 455.359375 194.511719 459.625 191.863281 C 465.546875 188.175781 469.808594 182.925781 473.203125 177.5 C 473.339844 177.59375 473.484375 177.667969 473.621094 177.757812 C 474.023438 178.058594 474.457031 178.300781 474.867188 178.582031 C 475.269531 178.882812 475.703125 179.125 476.117188 179.40625 C 476.515625 179.707031 476.949219 179.949219 477.363281 180.230469 C 477.765625 180.527344 478.195312 180.773438 478.609375 181.054688 C 479.007812 181.351562 479.441406 181.597656 479.855469 181.878906 C 480.257812 182.175781 480.6875 182.421875 481.101562 182.703125 C 481.503906 183 481.933594 183.246094 482.347656 183.527344 C 482.75 183.824219 483.183594 184.070312 483.59375 184.347656 C 483.996094 184.648438 484.429688 184.890625 484.839844 185.171875 C 485.242188 185.472656 485.675781 185.714844 486.089844 185.996094 C 486.488281 186.296875 486.921875 186.539062 487.335938 186.820312 C 487.738281 187.121094 488.167969 187.363281 488.582031 187.644531 C 488.984375 187.945312 489.414062 188.1875 489.828125 188.46875 C 490.230469 188.765625 490.664062 189.011719 491.074219 189.292969 C 496.648438 193.445312 503.46875 195.925781 510.457031 195.925781 C 510.898438 195.925781 511.335938 195.914062 511.773438 195.894531 C 520.511719 195.503906 528.730469 191.1875 534.5 184.71875 C 534.703125 184.851562 534.933594 184.960938 535.144531 185.089844 C 535.542969 185.378906 535.960938 185.652344 536.390625 185.914062 C 536.792969 186.203125 537.207031 186.472656 537.636719 186.738281 C 538.039062 187.027344 538.453125 187.300781 538.882812 187.5625 C 539.285156 187.851562 539.699219 188.125 540.128906 188.386719 C 540.53125 188.675781 540.945312 188.949219 541.375 189.210938 C 541.777344 189.5 542.195312 189.773438 542.625 190.035156 C 543.023438 190.324219 543.441406 190.59375 543.867188 190.855469 C 544.273438 191.148438 544.6875 191.417969 545.117188 191.679688 C 548.847656 194.371094 553.734375 195.910156 559.175781 195.925781 C 559.195312 195.925781 559.21875 195.925781 559.246094 195.925781 C 564.570312 195.925781 569.417969 194.582031 573.269531 192.039062 C 578.242188 188.753906 581.390625 183.5 581.695312 177.988281 C 581.828125 175.515625 580.449219 173.296875 578.308594 172.171875 C 577.9375 171.839844 577.511719 171.585938 577.0625 171.347656 C 576.6875 171.015625 576.265625 170.761719 575.816406 170.523438 C 575.441406 170.191406 575.019531 169.9375 574.566406 169.699219 C 574.195312 169.367188 573.773438 169.113281 573.320312 168.875 C 573.296875 168.855469 573.277344 168.824219 573.253906 168.804688 Z M 441.496094 95.59375 C 441.109375 95.265625 440.691406 94.992188 440.242188 94.765625 C 439.390625 94.039062 438.371094 93.527344 437.25 93.335938 C 431.671875 92.375 424.515625 92.042969 416.03125 92.375 C 413.359375 92.476562 411.046875 94.257812 410.269531 96.808594 C 410.175781 97.117188 410.089844 97.425781 409.996094 97.738281 C 409.605469 97.453125 409.214844 97.203125 408.820312 96.964844 C 408.402344 96.664062 407.988281 96.394531 407.570312 96.140625 C 407.15625 95.839844 406.742188 95.570312 406.324219 95.316406 C 405.910156 95.015625 405.496094 94.746094 405.078125 94.492188 C 404.664062 94.191406 404.25 93.921875 403.832031 93.667969 C 403.414062 93.367188 403 93.097656 402.585938 92.847656 C 402.171875 92.542969 401.757812 92.273438 401.335938 92.023438 C 398.742188 90.128906 396.058594 89.21875 393.820312 88.835938 C 383.417969 87.058594 371.335938 94.1875 363.488281 101.386719 C 363.109375 101.109375 362.699219 100.863281 362.296875 100.605469 C 361.898438 100.316406 361.472656 100.054688 361.050781 99.78125 C 360.652344 99.492188 360.226562 99.230469 359.804688 98.960938 C 359.40625 98.667969 358.980469 98.40625 358.558594 98.136719 C 358.160156 97.84375 357.730469 97.582031 357.3125 97.3125 C 356.910156 97.019531 356.484375 96.757812 356.0625 96.488281 C 355.664062 96.195312 355.238281 95.933594 354.820312 95.664062 C 354.417969 95.371094 353.992188 95.109375 353.570312 94.839844 C 353.171875 94.546875 352.746094 94.285156 352.324219 94.015625 C 352 93.78125 351.660156 93.566406 351.324219 93.34375 C 351.035156 92.789062 350.734375 92.234375 350.269531 91.773438 C 347.582031 89.089844 347.371094 81.304688 349.871094 77.15625 C 352.378906 73 357.3125 69.953125 363.410156 68.789062 C 369.6875 67.582031 376.433594 68.371094 382.765625 69.390625 C 402.367188 72.566406 421.332031 78.59375 439.144531 87.308594 C 441.105469 88.269531 443.070312 89.304688 445.03125 90.332031 C 444.160156 92.261719 443.292969 94.195312 442.429688 96.164062 C 442.128906 95.945312 441.820312 95.753906 441.496094 95.59375 Z M 441.496094 95.59375 " fill-opacity="1" fill-rule="nonzero"/></g><path fill="#ff5542" d="M 167.015625 38.976562 C 143.941406 24.78125 114.371094 21.664062 88.84375 30.746094 C 79.476562 34.078125 70.542969 39.050781 63.695312 46.253906 C 56.847656 53.457031 52.226562 63.039062 52.144531 72.976562 C 52.058594 82.914062 56.921875 93.039062 65.421875 98.195312 C 73.695312 103.214844 84.890625 102.921875 92.886719 97.476562 C 100.882812 92.03125 105.253906 81.726562 103.609375 72.191406 C 96.632812 71.492188 90.820312 63.945312 92.589844 57.164062 C 94.359375 50.386719 100.53125 45.523438 107.117188 43.109375 C 117.289062 39.378906 128.753906 40.640625 138.566406 45.378906 C 132.863281 51.050781 128.894531 58.894531 125.367188 66.308594 C 114.941406 88.253906 104.511719 110.199219 94.082031 132.144531 C 86.699219 129.722656 79.195312 127.730469 71.488281 126.863281 C 60.078125 125.582031 48.082031 126.929688 38.113281 132.621094 C 28.148438 138.316406 20.5625 148.808594 20.207031 160.277344 C 19.746094 175.179688 31.960938 188.6875 46.445312 192.234375 C 60.933594 195.78125 76.613281 190.59375 88.148438 181.144531 C 92.605469 177.492188 96.507812 173.261719 99.949219 168.660156 C 110.375 174.507812 121.488281 179.125 133.207031 181.320312 C 148.394531 184.164062 164.710938 182.695312 178.230469 175.210938 C 190.132812 168.625 199.347656 157.613281 204.605469 145.070312 C 209.859375 132.523438 211.277344 118.53125 209.574219 105.039062 C 206.1875 78.167969 190.085938 53.175781 167.015625 38.976562 Z M 80.753906 157.007812 C 77.175781 161.371094 72.3125 164.933594 66.742188 165.808594 C 62.902344 166.410156 58.140625 165.054688 57.109375 161.3125 C 56.414062 158.769531 57.824219 155.976562 59.996094 154.480469 C 62.167969 152.984375 64.933594 152.597656 67.570312 152.726562 C 72.28125 152.960938 76.640625 154.671875 80.8125 156.933594 C 80.789062 156.960938 80.773438 156.984375 80.753906 157.007812 Z M 164.007812 121.886719 C 159.640625 131.253906 151.496094 139.128906 141.5 141.761719 C 132.832031 144.042969 123.90625 142.324219 115.21875 139.574219 C 119.851562 127.34375 123.292969 114.675781 127.597656 102.316406 C 133.515625 85.332031 141.089844 68.929688 150.160156 53.398438 C 160.542969 63.234375 166.402344 77.304688 168.0625 91.542969 C 169.257812 101.808594 168.375 112.519531 164.007812 121.886719 Z M 164.007812 121.886719 " fill-opacity="1" fill-rule="nonzero"/><path fill="#ff5542" d="M 241.195312 112.214844 C 244.234375 107.679688 245.339844 97.800781 239.082031 95.394531 C 233.921875 93.410156 225.804688 96.886719 223.480469 101.644531 C 221.210938 106.296875 223.007812 112.550781 227.445312 115.222656 C 231.878906 117.890625 238.308594 116.511719 241.195312 112.214844 Z M 241.195312 112.214844 " fill-opacity="1" fill-rule="nonzero"/><path fill="#ff5542" d="M 237.433594 122.949219 C 231.960938 126.203125 224.191406 124.828125 220.167969 119.894531 C 217.101562 130.027344 213.519531 140.449219 210.453125 150.582031 C 208.773438 156.121094 207.171875 162.425781 210.082031 167.429688 C 212.738281 171.992188 218.855469 173.960938 223.890625 172.371094 C 228.925781 170.78125 231.402344 165.035156 232.503906 159.875 C 230.886719 159.960938 229.539062 158.449219 229.222656 156.859375 C 228.910156 155.269531 229.367188 153.636719 229.816406 152.082031 C 232.558594 142.601562 234.691406 132.429688 237.433594 122.949219 Z M 237.433594 122.949219 " fill-opacity="1" fill-rule="nonzero"/><path fill="#ff5542" d="M 276.628906 129.660156 C 275.414062 128.148438 274.257812 126.539062 273.3125 124.839844 C 273.398438 124.875 273.480469 124.910156 273.566406 124.945312 C 282.160156 128.273438 293.097656 124.003906 296.765625 115.550781 C 300.433594 107.097656 295.742188 95.90625 286.996094 92.992188 C 281.824219 91.265625 276.09375 92.285156 271.023438 94.296875 C 269.09375 95.058594 267.210938 95.988281 265.429688 97.066406 C 264.140625 94.933594 262.894531 92.769531 261.644531 90.617188 C 257.511719 83.496094 253.207031 76.320312 247.1875 70.699219 C 241.167969 65.078125 233.132812 61.109375 224.917969 61.734375 C 216.703125 62.363281 208.703125 68.484375 207.621094 76.644531 C 206.539062 84.804688 214.847656 93.796875 222.929688 92.207031 C 222.65625 89.785156 224.535156 87.496094 226.816406 86.644531 C 229.101562 85.792969 231.660156 86.113281 234.003906 86.792969 C 242.667969 89.304688 249.28125 96.335938 254.304688 103.828125 C 254.847656 104.636719 255.382812 105.460938 255.917969 106.296875 C 255.804688 106.488281 255.683594 106.675781 255.574219 106.871094 C 252.253906 112.769531 251.835938 120.519531 255.550781 126.179688 C 257.84375 129.679688 261.421875 132.09375 264.449219 134.988281 C 267.476562 137.882812 270.125 141.769531 269.628906 145.925781 C 269.265625 148.964844 266.996094 151.773438 264.015625 152.464844 C 261.035156 153.152344 257.597656 151.433594 256.632812 148.527344 C 255.667969 145.625 257.644531 142.023438 260.667969 141.535156 C 257.394531 136.097656 248.167969 135.570312 243.753906 140.132812 C 239.34375 144.695312 238.921875 152.042969 241.160156 157.984375 C 244.164062 165.960938 251.652344 172.105469 260.082031 173.386719 C 268.511719 174.671875 277.542969 170.988281 282.578125 164.109375 C 287.613281 157.230469 288.378906 147.445312 284.375 139.921875 C 282.359375 136.128906 279.316406 133.007812 276.628906 129.660156 Z M 276.992188 107.867188 C 278.472656 107.386719 280.210938 107.425781 281.457031 108.359375 C 282.699219 109.296875 283.167969 111.273438 282.171875 112.472656 C 280.535156 114.433594 277.363281 112.769531 275.59375 110.925781 C 275.136719 110.453125 274.695312 109.96875 274.257812 109.480469 C 275.039062 108.765625 275.953125 108.203125 276.992188 107.867188 Z M 276.992188 107.867188 " fill-opacity="1" fill-rule="nonzero"/><path fill="#ff5542" d="M 325.84375 130.042969 C 329.96875 132.089844 334.945312 131.636719 339.304688 130.136719 C 344.632812 128.300781 349.535156 124.847656 352.363281 119.972656 C 355.191406 115.097656 355.683594 108.746094 352.929688 103.824219 C 349.613281 97.894531 342.34375 95.097656 335.546875 95.128906 C 324.355469 95.183594 313.902344 101.699219 306.9375 110.457031 C 299.976562 119.210938 296.070312 130.003906 293.269531 140.828125 C 292.011719 145.6875 290.945312 150.675781 291.234375 155.6875 C 291.527344 160.699219 293.320312 165.796875 297.019531 169.191406 C 301.71875 173.496094 308.910156 174.382812 314.984375 172.4375 C 321.054688 170.492188 326.085938 166.078125 329.921875 160.988281 C 333.496094 156.25 336.25 150.023438 334.117188 144.484375 C 331.730469 146.824219 329.054688 148.820312 326.011719 150.203125 C 322.96875 151.585938 319.160156 151.777344 316.445312 149.828125 C 314.4375 148.386719 313.300781 145.976562 312.878906 143.539062 C 312.457031 141.105469 312.667969 138.609375 312.882812 136.148438 C 313.410156 130.121094 316.113281 122.699219 320.566406 118.601562 C 318.925781 122.90625 321.710938 127.992188 325.84375 130.042969 Z M 325.84375 130.042969 " fill-opacity="1" fill-rule="nonzero"/><path fill="#ff5542" d="M 402.070312 102.632812 C 394.320312 86.675781 375.03125 98.746094 366.382812 107.289062 C 359.433594 114.160156 354.476562 122.878906 351.28125 132.113281 C 348.957031 138.832031 347.519531 146.03125 348.566406 153.070312 C 349.609375 160.105469 353.425781 166.96875 359.628906 170.453125 C 367.671875 174.972656 378.261719 172.902344 385.546875 167.238281 C 392.828125 161.574219 397.253906 152.960938 400.078125 144.179688 C 403.203125 134.472656 404.644531 124.21875 404.3125 114.023438 C 404.183594 110.125 403.773438 106.140625 402.070312 102.632812 Z M 389.058594 121.644531 C 388.148438 125.476562 386.160156 128.980469 383.835938 132.167969 C 382.460938 134.054688 380.878906 135.910156 378.742188 136.839844 C 376.601562 137.769531 373.78125 137.503906 372.351562 135.664062 C 370.894531 133.785156 371.339844 131.109375 371.871094 128.792969 C 372.871094 124.46875 373.976562 120.0625 376.421875 116.359375 C 378.066406 113.867188 383.546875 108.257812 387.136719 109.949219 C 390.496094 111.527344 389.734375 118.8125 389.058594 121.644531 Z M 389.058594 121.644531 " fill-opacity="1" fill-rule="nonzero"/><path fill="#ff5542" d="M 534.0625 46.773438 C 531.828125 40.203125 526.910156 34.378906 520.394531 31.980469 C 508.832031 27.722656 493.84375 30.742188 484.941406 39.257812 C 476.046875 47.773438 469.027344 57.640625 462.921875 68.375 C 459.734375 66.84375 456.605469 65.195312 453.558594 63.554688 C 434.164062 53.128906 414.769531 42.707031 395.375 32.277344 C 381.890625 25.03125 368.320312 17.746094 353.761719 13.003906 C 339.207031 8.261719 323.464844 6.152344 308.523438 9.488281 C 293.582031 12.820312 279.5625 22.117188 272.765625 35.832031 C 265.972656 49.542969 267.644531 67.640625 278.496094 78.433594 C 289.351562 89.222656 309.222656 90.113281 319.648438 78.90625 C 314.535156 73.8125 314.582031 62.796875 318.308594 56.617188 C 322.039062 50.433594 328.953125 46.679688 336.042969 45.324219 C 343.132812 43.96875 350.453125 44.746094 357.578125 45.898438 C 377.722656 49.160156 397.378906 55.410156 415.710938 64.375 C 427.371094 70.082031 438.476562 76.871094 450.171875 82.5 C 451.628906 83.203125 453.097656 83.882812 454.578125 84.542969 C 444.960938 104.804688 436.757812 127.042969 424.695312 148.59375 C 427.851562 132.347656 433.023438 115.753906 436.179688 99.511719 C 430.039062 98.453125 422.492188 98.398438 416.261719 98.640625 C 411.300781 114.878906 407.25 131.398438 404.140625 148.089844 C 403.078125 153.773438 402.203125 159.976562 404.949219 165.066406 C 409.480469 173.453125 422.027344 174.28125 430.121094 169.246094 C 438.21875 164.210938 442.910156 155.296875 447.234375 146.796875 C 456.582031 128.410156 465.925781 110.023438 475.273438 91.632812 C 479.230469 92.519531 483.246094 93.113281 487.308594 93.335938 C 500.273438 94.039062 513.832031 90.605469 523.523438 81.972656 C 533.21875 73.339844 538.238281 59.058594 534.0625 46.773438 Z M 495.367188 74.722656 C 491.457031 75.542969 487.550781 75.601562 483.671875 75.128906 C 484.363281 73.769531 485.054688 72.414062 485.742188 71.058594 C 487.726562 67.152344 489.902344 63.039062 493.695312 60.839844 C 497.480469 58.640625 503.34375 59.453125 504.941406 63.53125 C 506.984375 68.75 500.855469 73.570312 495.367188 74.722656 Z M 495.367188 74.722656 " fill-opacity="1" fill-rule="nonzero"/><path fill="#ff5542" d="M 488.167969 99.585938 C 478.441406 103.1875 471.382812 111.71875 466.097656 120.640625 C 460.148438 130.695312 455.769531 142.785156 459.207031 153.953125 C 462.574219 164.898438 473.871094 172.859375 485.316406 172.347656 C 496.765625 171.835938 507.308594 162.90625 509.6875 151.703125 C 505.261719 153.796875 498.5 155.542969 493.625 155.996094 C 490.800781 156.257812 487.890625 156.222656 485.207031 155.296875 C 482.527344 154.371094 480.089844 152.445312 479.074219 149.796875 C 478.054688 147.148438 478.664062 144.253906 480.972656 142.609375 C 486.449219 146.917969 494.507812 146.988281 500.734375 143.859375 C 506.957031 140.730469 511.472656 134.863281 514.25 128.472656 C 517.015625 122.113281 518.179688 114.574219 515.148438 108.332031 C 510.625 99.007812 497.898438 95.984375 488.167969 99.585938 Z M 491.324219 132.460938 C 490.320312 133.339844 489.234375 134.191406 487.945312 134.539062 C 486.660156 134.886719 485.121094 134.621094 484.292969 133.578125 C 483.339844 132.371094 483.605469 130.640625 483.960938 129.144531 C 485.035156 124.671875 486.574219 120.175781 489.574219 116.695312 C 492.605469 113.175781 502.359375 108.578125 502.128906 116.816406 C 501.976562 122.148438 495.035156 129.214844 491.324219 132.460938 Z M 491.324219 132.460938 " fill-opacity="1" fill-rule="nonzero"/><path fill="#ff5542" d="M 551.894531 122.695312 C 553.050781 119.8125 554.226562 116.839844 554.230469 113.734375 C 554.238281 110.625 552.792969 107.308594 549.96875 106.007812 C 545.753906 104.070312 539.855469 107 536.585938 103.707031 C 533.875 100.976562 535.433594 96.382812 537.253906 92.996094 C 539.078125 89.605469 540.988281 85.285156 538.691406 82.199219 C 536.398438 79.105469 532.507812 79.195312 529.527344 81.636719 C 525.355469 85.058594 521.015625 88.695312 519 93.703125 C 516.984375 98.707031 518.242188 105.472656 523.109375 107.8125 C 525.027344 108.734375 527.292969 108.890625 529.0625 110.078125 C 531.675781 111.828125 532.480469 115.429688 531.890625 118.515625 C 531.300781 121.605469 529.597656 124.34375 528.0625 127.089844 C 523.726562 134.847656 520.53125 143.238281 518.613281 151.914062 C 517.566406 156.632812 516.980469 161.886719 519.480469 166.019531 C 522.175781 170.476562 527.800781 172.355469 533.011719 172.367188 C 536.726562 172.375 540.527344 171.570312 543.632812 169.523438 C 546.734375 167.472656 549.050781 164.070312 549.253906 160.359375 C 547.699219 162.613281 540.253906 161.730469 539.320312 159.15625 C 538.386719 156.585938 539.417969 153.757812 540.4375 151.21875 C 544.257812 141.714844 548.078125 132.207031 551.894531 122.695312 Z M 551.894531 122.695312 " fill-opacity="1" fill-rule="nonzero"/></svg>